<svg data-name="Layer 1" xmlns="http://www.w3.org/2000/svg" width="1100" height="806.74" viewBox="0 0 1100 806.74"><defs><linearGradient id="a" x1="459.23" y1="847.99" x2="459.23" y2="385.75" gradientTransform="translate(250.84)" gradientUnits="userSpaceOnUse"><stop offset="0" stop-color="gray" stop-opacity=".25"/><stop offset=".54" stop-color="gray" stop-opacity=".12"/><stop offset="1" stop-color="gray" stop-opacity=".1"/></linearGradient></defs><ellipse cx="629.72" cy="780.56" rx="122.56" ry="26.18" fill="#79837e" opacity=".1"/><path d="M1070.55 683.84c-24.35 20.2-59 28.56-92.51 33.84l-5.64.86c-58.57 8.74-118.32 10.52-177.79 12.28-165.87 4.91-332.17 9.81-497.6-1.51-73.16-5-148.13-13.76-212.25-43.7l-1.67-.79c-.83-.39-1.66-.78-2.49-1.19A224.11 224.11 0 0148 664.54c-18.31-13.06-33.43-29-41.42-47.91-12.52-29.66-5.9-63 8.4-92s35.8-55.12 54.34-82.43c5.44-8 10.6-16.3 15.4-24.81 30-53.37 44.88-115.13 13.43-166.56a228.58 228.58 0 00-13.43-19c-7.67-10-15.47-20-20.74-31.07-12.29-25.76-9.65-54.73-5.17-82.25 6-36.59 17.05-76 51.38-98.86 35.67-23.74 86.3-22.54 130.57-14 68.83 13.19 132.36 40.8 196.49 65.7s131.35 47.58 201.86 50.02c62.26 2.17 134.89-14 176.23-56.08 40.15-40.85 115.6-43.94 170-19.27 51.91 23.54 85.48 73.36 83 123.12-3.16 62.1-54.93 111.83-95.9 164.7-6.81 8.79-13.33 17.68-19.28 26.72-19.42 29.53-33.15 65-19.78 96.88 7.5 17.85 21.81 31.47 39.06 43.36 38.65 26.63 92 44.55 116 81.83 20.67 32.16 13.01 75.56-17.89 101.21z" fill="#79837e" opacity=".1"/><ellipse cx="972.5" cy="704.85" rx="57.01" ry="10.96" fill="#79837e"/><ellipse cx="971.55" cy="700.19" rx="6.64" ry="8.69" fill="#3f3d56"/><ellipse cx="971.55" cy="689.57" rx="6.64" ry="8.69" fill="#3f3d56"/><ellipse cx="971.55" cy="678.94" rx="6.64" ry="8.69" fill="#3f3d56"/><ellipse cx="971.55" cy="668.32" rx="6.64" ry="8.69" fill="#3f3d56"/><ellipse cx="971.55" cy="657.7" rx="6.64" ry="8.69" fill="#3f3d56"/><ellipse cx="971.55" cy="647.08" rx="6.64" ry="8.69" fill="#3f3d56"/><ellipse cx="971.55" cy="636.46" rx="6.64" ry="8.69" fill="#3f3d56"/><path d="M996.4 563.78a31 31 0 002.47-3.64l-17.44-2.86 18.86.14a31.78 31.78 0 00.61-25.2l-25.31 13.15 23.34-17.15a31.8 31.8 0 10-52.51 35.58 31.55 31.55 0 00-3.63 5.8l22.64 11.77-24.14-8.1a31.79 31.79 0 005.13 29.86 31.8 31.8 0 1050 0 31.78 31.78 0 000-39.32z" fill="#79837e"/><path d="M939.61 583.44a31.68 31.68 0 006.81 19.66 31.8 31.8 0 1050 0c4.24-5.41-56.81-23.23-56.81-19.66z" opacity=".1"/><path d="M134.73 673.91c0 5.59-21.81 10.21-50 10.87h-1.67c-.83-.39-1.66-.78-2.49-1.19A224.11 224.11 0 0148 664.54c6.85-.8 14.64-1.34 23-1.52h1.13c1.82 0 3.67-.06 5.54-.06h7.05c28.2.73 50.01 5.41 50.01 10.95z" fill="#79837e"/><ellipse cx="76.76" cy="669.25" rx="6.64" ry="8.69" fill="#3f3d56"/><ellipse cx="76.76" cy="658.63" rx="6.64" ry="8.69" fill="#3f3d56"/><ellipse cx="76.76" cy="648.01" rx="6.64" ry="8.69" fill="#3f3d56"/><ellipse cx="76.76" cy="637.39" rx="6.64" ry="8.69" fill="#3f3d56"/><ellipse cx="76.76" cy="626.77" rx="6.64" ry="8.69" fill="#3f3d56"/><ellipse cx="76.76" cy="616.15" rx="6.64" ry="8.69" fill="#3f3d56"/><ellipse cx="76.76" cy="605.52" rx="6.64" ry="8.69" fill="#3f3d56"/><path d="M101.61 532.84a32.28 32.28 0 002.48-3.63l-17.45-2.84 18.87.14a31.8 31.8 0 00.6-25.19l-25.3 13.13 23.34-17.16a31.8 31.8 0 10-52.52 35.58 32.45 32.45 0 00-3.63 5.8l22.64 11.7-24.14-8.07a31.87 31.87 0 005.13 29.86 31.8 31.8 0 1050 0 31.78 31.78 0 000-39.32z" fill="#79837e"/><path d="M44.83 552.5a31.67 31.67 0 006.8 19.66 31.8 31.8 0 1050 0c4.24-5.41-56.8-23.23-56.8-19.66z" opacity=".1"/><g opacity=".2"><path d="M305.84 555.29c0 .94-.1 1.86-.2 2.76q-11.64-4.68-22.92-9.93a18.59 18.59 0 01-10.6-5.17c-2.19-1.1-4.37-2.24-6.54-3.39a26.82 26.82 0 011.66-3c4.2-6.66 10.6-10.83 17.65-10.6s13.15 4.78 16.93 11.66a34.37 34.37 0 014.02 17.67z" fill="#3f3d56"/><path d="M307 520.37a34.56 34.56 0 01-5.13 17.32c-4.21 6.64-10.6 10.81-17.65 10.58-.49 0-1-.06-1.45-.1a18.59 18.59 0 01-10.6-5.17 25.27 25.27 0 01-4.88-6.37 35.82 35.82 0 011.1-35c4.21-6.66 10.6-10.83 17.65-10.6s13.15 4.78 16.93 11.66a34.47 34.47 0 014.03 17.68z" fill="#3f3d56"/><ellipse cx="336.18" cy="531.28" rx="28.63" ry="21.87" transform="rotate(-88.19 287.148 533.775)" fill="#3f3d56"/><ellipse cx="337.29" cy="496.31" rx="28.63" ry="21.87" transform="rotate(-88.19 288.252 498.807)" fill="#3f3d56"/><ellipse cx="338.39" cy="461.34" rx="28.63" ry="21.87" transform="rotate(-88.19 289.351 463.833)" fill="#3f3d56"/><path d="M214.12 172.83a105.78 105.78 0 01-7.76-12.24l57.72-7.62-62.08-1.5a104.92 104.92 0 01.62-83l82 45.85-75.15-58.95a104.75 104.75 0 11169.22 122.65A105.13 105.13 0 01390 197.48l-75.77 36.38 80.33-24.17a104.85 104.85 0 01-20 97.78A104.75 104.75 0 11210 302.28a104.73 104.73 0 014.08-129.45z" fill="#79837e"/><path d="M399.05 243.45a104.29 104.29 0 01-24.44 64A104.75 104.75 0 11210 302.28c-13.43-18.25 189.42-70.58 189.05-58.83z" opacity=".1"/></g><g opacity=".2"><path d="M798.18 480.51c0 .67-.07 1.32-.14 2q-8.31-3.29-16.31-7.06a13.31 13.31 0 01-7.55-3.68c-1.55-.79-3.11-1.6-4.65-2.41a19.78 19.78 0 011.18-2.13c3-4.74 7.54-7.7 12.56-7.54s9.36 3.4 12.05 8.3a24.5 24.5 0 012.86 12.52z" fill="#3f3d56"/><path d="M799 455.62a24.56 24.56 0 01-3.65 12.33c-3 4.72-7.54 7.69-12.56 7.53l-1-.07a13.31 13.31 0 01-7.55-3.68 18.32 18.32 0 01-3.47-4.54 25.51 25.51 0 01.78-24.88c3-4.74 7.55-7.71 12.56-7.55s9.37 3.4 12.05 8.3a24.55 24.55 0 012.84 12.56z" fill="#3f3d56"/><ellipse cx="834.19" cy="476.87" rx="20.37" ry="15.56" transform="rotate(-88.19 785.171 479.34)" fill="#3f3d56"/><ellipse cx="834.98" cy="451.98" rx="20.37" ry="15.56" transform="rotate(-88.19 785.957 454.46)" fill="#3f3d56"/><ellipse cx="835.76" cy="427.1" rx="20.37" ry="15.56" transform="rotate(-88.19 786.738 429.573)" fill="#3f3d56"/><path d="M732.91 208.37a73.57 73.57 0 01-5.52-8.71l41.08-5.42-44.21-1.07a74.67 74.67 0 01.43-59.07L783 166.69l-53.4-41.93A74.55 74.55 0 11850 212.02a74.71 74.71 0 018.06 13.86l-53.89 25.89 57.17-17.2a74.55 74.55 0 01-14.22 69.58A74.54 74.54 0 11730 300.46a74.55 74.55 0 012.91-92.09z" fill="#79837e"/><path d="M864.52 258.59a74.2 74.2 0 01-17.4 45.56A74.54 74.54 0 11730 300.46c-9.58-13 134.78-50.23 134.52-41.87z" opacity=".1"/></g><g opacity=".2"><path d="M585 402.46c0 .67-.08 1.32-.15 2q-8.31-3.29-16.31-7.06a13.28 13.28 0 01-7.54-3.68c-1.56-.79-3.11-1.6-4.65-2.41a19 19 0 011.17-2.13c3-4.73 7.55-7.7 12.56-7.54s9.36 3.4 12.05 8.3a24.5 24.5 0 012.87 12.52z" fill="#3f3d56"/><path d="M585.74 377.57a24.56 24.56 0 01-3.65 12.33c-3 4.72-7.54 7.69-12.56 7.53-.35 0-.68 0-1-.07a13.28 13.28 0 01-7.54-3.68 18.11 18.11 0 01-3.48-4.54 25.48 25.48 0 01.79-24.88c3-4.74 7.54-7.71 12.56-7.55s9.36 3.4 12 8.3a24.54 24.54 0 012.88 12.56z" fill="#3f3d56"/><ellipse cx="620.97" cy="398.82" rx="20.37" ry="15.56" transform="rotate(-88.3 571.11 401.206)" fill="#3f3d56"/><ellipse cx="621.75" cy="373.93" rx="20.37" ry="15.56" transform="rotate(-88.19 572.718 376.417)" fill="#3f3d56"/><ellipse cx="622.54" cy="349.05" rx="20.37" ry="15.56" transform="rotate(-88.19 573.504 351.525)" fill="#3f3d56"/><path d="M519.68 130.28a74.87 74.87 0 01-5.52-8.71l41.08-5.42-44.24-1.07a74.62 74.62 0 01.44-59.07l58.33 32.63-53.39-41.93a74.54 74.54 0 11120.42 87.26 74.76 74.76 0 018.07 13.86L591 173.72l57.16-17.2a74.55 74.55 0 01-14.22 69.58 74.54 74.54 0 11-117.16-3.73 74.57 74.57 0 012.9-92.13z" fill="#79837e"/><path d="M651.29 180.54a74.2 74.2 0 01-17.4 45.56 74.54 74.54 0 11-117.11-3.73c-9.59-12.95 134.77-50.19 134.51-41.83z" opacity=".1"/></g><path d="M972.4 500.81v217.73c-58.57 8.74-118.32 10.52-177.79 12.28-165.87 4.91-332.17 9.81-497.6-1.51-73.16-5-148.13-13.76-212.25-43.7V417.37c.24-185-.76 0 0-185.56v-66.59a14.1 14.1 0 0114.1-14.1H958.3a14.1 14.1 0 0114.1 14.1v168.63c.6 166.52-.4.52 0 166.96z" fill="#3f3d56"/><rect x="344.15" y="217.75" width="368.86" height="28.56" rx="5.22" fill="#79837e" opacity=".3"/><path d="M687.94 233.22h-.61l-.23-.19a5.1 5.1 0 001.19-3.25 4.94 4.94 0 10-4.92 5 5.09 5.09 0 003.24-1.18l.22.19v.58l3.81 3.82 1.14-1.14zm-4.57 0a3.44 3.44 0 113.43-3.44 3.42 3.42 0 01-3.43 3.44z" fill="#444053"/><rect x="222.84" y="493.2" width="34.42" height="11.9" rx="5" fill="#3f3d56" opacity=".7"/><rect x="222.84" y="522.95" width="53.54" height="11.9" rx="5" fill="#79837e" opacity=".3"/><rect x="222.84" y="508.08" width="107.09" height="11.9" rx="5" fill="#79837e" opacity=".3"/><path d="M164.57 522.58a5.74 5.74 0 00-5.8 5.69 3.88 3.88 0 01-3.87 3.79 10 10 0 007.73 3.8 7.67 7.67 0 007.75-7.59 5.75 5.75 0 00-5.81-5.69zm26.53-17.76l-2.6-2.55a1.94 1.94 0 00-2.72 0l-17.34 17 5.32 5.22 17.32-17a1.86 1.86 0 00.02-2.67z" fill="#79837e"/><rect x="222.84" y="345.66" width="34.42" height="11.9" rx="5" fill="#3f3d56" opacity=".7"/><rect x="222.84" y="375.41" width="53.54" height="11.9" rx="5" fill="#79837e" opacity=".3"/><rect x="222.84" y="360.53" width="107.09" height="11.9" rx="5" fill="#79837e" opacity=".3"/><path d="M191.18 378.15L176 362.87a10.82 10.82 0 00-2.51-11.58 11 11 0 00-12.35-2.18l7.18 7.22-5 5-7.32-7.18a10.86 10.86 0 002.17 12.41 10.66 10.66 0 0011.51 2.52l15.15 15.29a1.61 1.61 0 002.34 0l3.84-3.86a1.51 1.51 0 00.17-2.35z" fill="#79837e"/><rect x="509.6" y="493.2" width="34.42" height="11.9" rx="5" fill="#3f3d56" opacity=".7"/><rect x="509.6" y="522.95" width="53.54" height="11.9" rx="5" fill="#79837e" opacity=".3"/><rect x="509.6" y="508.08" width="107.09" height="11.9" rx="5" fill="#79837e" opacity=".3"/><path d="M459.44 526a10 10 0 01-9.89 0c-3.87 1.19-6.24 5.09-7.12 8.54h24.12c-.87-3.45-3.23-7.35-7.11-8.54zm-4.94-18.37a8.69 8.69 0 108.69 8.68 8.69 8.69 0 00-8.69-8.68zm0 15.3a6.71 6.71 0 01-6.07-4.14h12.14a6.71 6.71 0 01-6.07 4.14z" fill="#79837e"/><path d="M472.09 521.37a10.07 10.07 0 01-8.4.69 12 12 0 01-2.3 2.86 11.24 11.24 0 014.9 4.33h12.91a10.72 10.72 0 00-7.11-7.88zm-4.94-18.38a8.71 8.71 0 00-7.33 4 10.78 10.78 0 015.15 7.14h8.25a6.72 6.72 0 01-6.07 4.12 6 6 0 01-2.08-.38 11.65 11.65 0 01-.54 2.07 8.35 8.35 0 002.62.4 8.69 8.69 0 000-17.38z" fill="#79837e"/><rect x="222.84" y="603.86" width="34.42" height="11.9" rx="5" fill="#3f3d56" opacity=".7"/><rect x="222.84" y="633.61" width="53.54" height="11.9" rx="5" fill="#79837e" opacity=".3"/><rect x="222.84" y="618.74" width="107.09" height="11.9" rx="5" fill="#79837e" opacity=".3"/><path d="M176.57 607.62h-9.82a3.28 3.28 0 00-3.32 3.24v.7h-.62a3.28 3.28 0 00-3.32 3.24v23.63a3.34 3.34 0 003.32 3.32h17.08a3.27 3.27 0 003.23-3.32v-.62h.71a3.27 3.27 0 003.23-3.32v-16.37zm0 3.66l6.84 6.84h-6.84zm3.94 27.15a.67.67 0 01-.62.7h-17.08a.73.73 0 01-.69-.7V614.8a.67.67 0 01.69-.62h.62v21c0 1.82.86 2.66 2.67 2.66h14.41zm3.93-3.94a.66.66 0 01-.61.7h-17.08a.73.73 0 01-.69-.7v-23.63a.67.67 0 01.69-.62h7.19v10.51h10.5z" fill="#79837e"/><rect x="509.6" y="345.66" width="34.42" height="11.9" rx="5" fill="#3f3d56" opacity=".7"/><rect x="509.6" y="375.41" width="53.54" height="11.9" rx="5" fill="#79837e" opacity=".3"/><rect x="509.6" y="360.53" width="107.09" height="11.9" rx="5" fill="#79837e" opacity=".3"/><path d="M457.32 353.37h-11.38a3.51 3.51 0 00-3.5 3.51v19.25a3.5 3.5 0 003.5 3.5h29.76a3.5 3.5 0 003.5-3.5v-15.34a3.51 3.51 0 00-3.5-3.5h-14.88l-3.5-3.94z" fill="#79837e"/><rect x="792.79" y="493.2" width="34.42" height="11.9" rx="5" fill="#3f3d56" opacity=".7"/><rect x="792.79" y="522.95" width="53.54" height="11.9" rx="5" fill="#79837e" opacity=".3"/><rect x="792.79" y="508.08" width="107.09" height="11.9" rx="5" fill="#79837e" opacity=".3"/><path d="M762.93 509.28l-6.77-.32-.4-4.41a1.7 1.7 0 00-1.88-1.52l-24.27 2a1.67 1.67 0 00-1.59 1.79l1.73 19.35a1.7 1.7 0 001.88 1.49l1.23-.09-.19 3.76a1.87 1.87 0 001.83 1.93l27.09 1.28a1.88 1.88 0 002-1.74l1.14-21.6a1.86 1.86 0 00-1.8-1.92zm-29.12.44l-.58 11.06-1.44 2-1.32-14.61v-.09a.89.89 0 01.78-.77l21.42-1.75a.81.81 0 01.87.64l.21 2.52-18-.86a1.9 1.9 0 00-1.94 1.86zm27.4 19.44l-7-8.17-3.07 2.82-5.67-6.63-10.07 10.72.86-16.33a.94.94 0 011-.74l23.9 1.16a.87.87 0 01.85.83z" fill="#79837e"/><path d="M756.89 518.79a2.63 2.63 0 10-2.62-2.63 2.64 2.64 0 002.62 2.63z" fill="#79837e"/><rect x="795.17" y="345.66" width="34.42" height="11.9" rx="5" fill="#3f3d56" opacity=".7"/><rect x="795.17" y="375.41" width="53.54" height="11.9" rx="5" fill="#79837e" opacity=".3"/><rect x="795.17" y="360.53" width="107.09" height="11.9" rx="5" fill="#79837e" opacity=".3"/><circle cx="762.56" cy="356.63" r="5.25" fill="#79837e"/><path d="M758.53 362.82l-10.42 6.94-14.44-9.62v-3.51l14.44 9.63 8.3-5.53a7.39 7.39 0 01-.1-8h-23.07a3.52 3.52 0 00-3.51 3.51v21.88a3.52 3.52 0 003.51 3.51H763a3.51 3.51 0 003.5-3.51v-15.2a7.37 7.37 0 01-8-.06z" fill="#79837e"/><ellipse cx="509.64" cy="746.02" rx="26.08" ry="5.01" fill="#79837e"/><ellipse cx="509.21" cy="743.89" rx="3.04" ry="3.97" fill="#3f3d56"/><ellipse cx="509.21" cy="739.03" rx="3.04" ry="3.97" fill="#3f3d56"/><ellipse cx="509.21" cy="734.17" rx="3.04" ry="3.97" fill="#3f3d56"/><ellipse cx="509.21" cy="729.31" rx="3.04" ry="3.97" fill="#3f3d56"/><ellipse cx="509.21" cy="724.46" rx="3.04" ry="3.97" fill="#3f3d56"/><ellipse cx="509.21" cy="719.6" rx="3.04" ry="3.97" fill="#3f3d56"/><ellipse cx="509.21" cy="714.74" rx="3.04" ry="3.97" fill="#3f3d56"/><path d="M520.57 681.5a13.59 13.59 0 001.13-1.67l-8-1.31 8.62.07a14.59 14.59 0 00.28-11.52l-11.57 6 10.67-7.85a14.54 14.54 0 10-24 16.28 15.11 15.11 0 00-1.66 2.65l10.36 5.38-11-3.7a14.53 14.53 0 002.34 13.65 14.54 14.54 0 1022.86 0 14.55 14.55 0 000-18z" fill="#79837e"/><path d="M494.6 690.49a14.45 14.45 0 003.11 9 14.54 14.54 0 1022.86 0c1.95-2.48-25.97-10.63-25.97-9z" opacity=".1"/><path d="M802 436.86a13.68 13.68 0 01-1-2.7c-.1-1.07.32-2.48-.63-3-.53-.29-1.27-.07-1.74-.45a2.15 2.15 0 01-.51-1.2 4.1 4.1 0 00-3.8-3c1-2.71 4.68-3.37 6.3-5.76.81-1.19.55-3.38-.88-3.39a2.49 2.49 0 00-1 .25l-5.33 2.2a27.35 27.35 0 00-3 1.39c-2.93 1.67-5.12 4.38-7.09 7.13a30.49 30.49 0 00-4.41 8 18 18 0 00-.94 5.49v.56c-.87.15-1.58.53-2.49.71l-2.07 5.47a6.93 6.93 0 01-1.35 2.49 12.52 12.52 0 01-1.46 1.15 8.45 8.45 0 00-2.91 7.37 7.93 7.93 0 00-4.66 9.78 9.31 9.31 0 00-6.81 6 4.43 4.43 0 01-.89 1.88 3.55 3.55 0 01-2.37.73c-2.34.15-4.38 2-6.49 1a13.21 13.21 0 00-7.71-1.08 5.77 5.77 0 01-1.65.15 4.43 4.43 0 01-1.35-.47 10.46 10.46 0 00-3.06-1.21 2.84 2.84 0 00-2.9 1.12c-.74-.81-1.18-1.86-1.85-2.73a3 3 0 00-2.82-1.35c.7-.63 0-1.89-.93-2.11a11.56 11.56 0 00-2.81.1c-2.44 0-4.32-2.24-6.69-2.83-2.18-.53-5.09.11-6.21-1.85-.35-.63-.45-1.45-1-1.92a3.64 3.64 0 00-.71-1.45c-.9-1-2.41-1.16-3.76-1.12a15.68 15.68 0 00-4.37.75c0-.17-.09-.36-.15-.56a11.09 11.09 0 00-4.84-5.94 20 20 0 00-5.66-2.26v-.53a22.55 22.55 0 011.16-7.43c.08-.26.18-.52.27-.78a26.6 26.6 0 0012-44.63 6.83 6.83 0 00-.21-1.6 7.86 7.86 0 00-1.6-3.12c-1.22-2.72-3.12-3.92-5.55-5.06-.7-.33-1.44-.65-2.22-1-3.87-1.74-7.61-4.3-12-4.29-4 0-7.86 2.21-11.82 2.13h-.95c-1.11-.13-2.44-.39-3.17.46a4.5 4.5 0 00-.56 1.09 2.64 2.64 0 01-.2.37 4.4 4.4 0 01-.51.69c-1.28 1.4-3.43 2-5.2 2.94-4 2.05-6.62 6.23-7.66 10.61s-.68 9 .1 13.44c.4 2.22 1.26 4.74 2.84 6.14s-13.37 9.51-10.93 10.86c1.33.74 6.87-2.77 11.64-6.12.05.2.09.41.15.61a44 44 0 002.18 6.25c1 2.39 2.44 5 4.93 5.69a5.36 5.36 0 001.69.19h.44a39.39 39.39 0 01-1.15 10.87 6.61 6.61 0 00-4.09 1.13 3.29 3.29 0 01-1.66.88 2.89 2.89 0 01-1.71-.84 9.7 9.7 0 00-12.14.64c-4.84 4.57-4.29 13.49-10 16.95-1.56.95-3.56 1.46-4.48 3.05a11.41 11.41 0 01-.77 1.47 4.05 4.05 0 01-1.36 1 26.48 26.48 0 00-4.68 2.7 6.72 6.72 0 00-2.69 4.54 8.61 8.61 0 00.82 3.81 36.44 36.44 0 003.12 6 6.38 6.38 0 00-1.26 2.95c-.4 2.81.94 5.58 1.09 8.42.13 2.48-.66 4.9-1.1 7.34-1.76 9.54 1.61 19.2 5 28.26a14.58 14.58 0 011.2 4.65c.09 3-1.6 5.67-2.07 8.59-1 6.14 3.53 11.92 3.63 18.13 0 2.87-.86 5.78-.14 8.55.47 1.85 1.62 3.44 2.44 5.17 1.44 3.06 1.83 6.53 3.21 9.62a23.07 23.07 0 007.12 8.48c1.73 5.49-.73 12.12 0 18q1.41-.56 2.85-1a41.17 41.17 0 006.3 24.84c1.55 2.42 3.37 4.68 4.54 7.31a34.26 34.26 0 011.77 5.79q2.51 10.47 5 20.92c1.36 5.65 2.73 11.4 2.32 17.2-.28 4-1.3 8.57 1.18 11.77a8.51 8.51 0 011.49 2.06 5.22 5.22 0 010 2.72 180.71 180.71 0 00-2.48 20.39c-.56.75-1.12 1.51-1.63 2.26-4.11 6-6.09 13.21-7.69 20.32a245.83 245.83 0 00-5.16 42.44 28.38 28.38 0 00-5.26 6.41c-2.15 4-2.43 8.7-2.66 13.24a4.73 4.73 0 00.24 2.18 4.48 4.48 0 002.24 1.68l1.24.59c-.27 1-.51 2-.72 3.05-1.58-1.78-4.39-4.6-4.87-2.54a101.78 101.78 0 00-2.56 21 1.77 1.77 0 001.9 2.12A116.25 116.25 0 00660 848c5.65 0 11.29-.46 16.92-.89l5.77-.44a127.7 127.7 0 0017.67-2.19c2.55-.56 5.18-1.35 7.1-3.14s2.86-4.85 1.54-7.12c-1.61-2.74-5.37-2.94-8.51-3.38a27.85 27.85 0 01-8.92-2.84c-.63-.32-1.24-.68-1.85-1 .16 0 .33-.08.48-.14 2.7-.91 4.85-3 7.39-4.25 3-1.45 6.31-1.78 9.57-2.19s6.62-1 9.33-2.86c2.54-1.74 4.34-4.91 3.75-7.89a5.15 5.15 0 00-.16-.62c-1-3.23-4.5-5-7.76-5.8s-6.8-1.28-9.44-3.38l-.39-.31c-.22-.19-.45-.37-.69-.56a5.62 5.62 0 00.77-3.26c-.14-1.79-1.18-3.37-1.89-5-1.39-3.25-1.5-6.88-1.88-10.39-.94-8.83-3.65-17.35-5.69-26-.23-1-.45-2-.67-3a62.86 62.86 0 017.27-11.64 38 38 0 007-13.77c.42-1.54.73-3.1 1.05-4.67Q713.18 694.18 718 667a45.19 45.19 0 00.91-7.84 23.89 23.89 0 001.35-7.43c.94-3.67 1.89-7.52 1.12-9.92-.54-1.7-.81-7.51-1.11-13.08a50.24 50.24 0 00-.54-8.93c-.09-.51-.19-1-.3-1.51q-.09-.45-.18-.75a25.68 25.68 0 00-1.76-4.86 23.63 23.63 0 00-1.32-2.71 12.34 12.34 0 00-1-1.48 62 62 0 016.22.58c.5.07 1.12.11 1.43-.3a1.47 1.47 0 00.18-.77 12.75 12.75 0 00-1.62-6.76c-.8-1.42-1.91-2.8-1.88-4.43a6.53 6.53 0 01.55-2.2l2.77-7.44c2.35-6.29 1.23-13.58 2.45-20.18a118.46 118.46 0 001.82-15.61c.23-4.47.09-9.32-2.6-12.9a14.73 14.73 0 01-2-2.84 8.41 8.41 0 01-.48-3.39q-.07-10.51.42-21a206.38 206.38 0 0035.05-4 22 22 0 004-1.08 20.19 20.19 0 004-2.53c3.93-2.84 7.92-5.73 10.91-9.55a32.36 32.36 0 006.46-15.94c2.84-2.63 4.35-6.37 5.77-10a15.42 15.42 0 001.32-4.85c.07-1.72-1.06-3.52-.74-5.21a13.78 13.78 0 014.19-7.58 2.74 2.74 0 001-1.33 2.12 2.12 0 00-.23-1.3l-.09-.15c.28-.17.54-.35.81-.53.93-.66 1.82-1.39 2.69-2.1a17 17 0 003.49-3.54 5.75 5.75 0 00.94-4.7zM673.69 820.15c-.24 0-.48 0-.71.06a9.57 9.57 0 00-2.54.73l-.19.1c1.1-2.38 2.14-4.8 3.08-7.26.11-.29.21-.58.32-.88l-.12 1.64a20.22 20.22 0 00.16 5.61z" transform="translate(-50 -46.63)" fill="url(#a)"/><path d="M638 409.1c.1 3.88 1.42 7.64 1.62 11.52-11.43.57-22.72-5-34-3.28 3.17-2.05 4.86-5.74 5.86-9.37a38.9 38.9 0 001.11-14.41 6.61 6.61 0 00-.14-.79c-.42-1.9-1.51-4.59-1.22-6.08.39-2 2.25-1.59 3.93-1.48a150.51 150.51 0 0115.26 2c1.32.23 14.13 3.43 14.33 3.1a59.69 59.69 0 00-5.55 11.43 22.32 22.32 0 00-1.2 7.36zm113.05-12a16.64 16.64 0 01-3.49 3.52c-.87.71-1.76 1.44-2.69 2.09a11.5 11.5 0 01-5.72 2.33c-2.72.18-8.51-1.42-10.2-3.75a6.77 6.77 0 01-1-3.91 17.88 17.88 0 01.94-5.46 30.42 30.42 0 014.41-8c2-2.74 4.16-5.43 7.09-7.09a27.35 27.35 0 013-1.39l5.33-2.18a2.5 2.5 0 011-.26c1.43 0 1.69 2.2.88 3.38-1.62 2.38-5.27 3-6.3 5.73a4.09 4.09 0 013.8 2.95 2.11 2.11 0 00.51 1.19c.47.37 1.21.16 1.74.45.95.5.53 1.91.63 3a13.5 13.5 0 001 2.68 5.69 5.69 0 01-.93 4.72z" fill="#ee8e9e"/><path d="M593.4 786.45c.88-.88 2.32-.73 3.55-.54a132 132 0 0019.95 1.61c.84-4.08-1.59-8-2.37-12.14a10.76 10.76 0 00-.8-3.08c-.94-1.8-3.06-2.63-5.05-3-3.59-.76-9.21-2.09-11.22 1.54-2.41 4.31-3.18 10.75-4.06 15.61z" fill="#65617d"/><path d="M666.49 771.02c-2.71 1.85-6.07 2.42-9.33 2.84s-6.61.74-9.57 2.19c-2.54 1.26-4.69 3.32-7.39 4.22a15.31 15.31 0 01-7.67.12c-3-.57-6.26-1.67-7.89-4.29-1.46-2.32-1.31-5.27-1.11-8 .24-3.09.47-6.2.69-9.3a4.4 4.4 0 01.58-2.24c2.19-3.2 7.52 1.33 10.37 1.33 4.52 0 9.37-2.46 12.62-5.45a3.89 3.89 0 011-.74c1.29-.58 2.58.49 3.72 1.42l.39.31c2.64 2.09 6.18 2.52 9.44 3.37s6.75 2.55 7.76 5.77a4.57 4.57 0 01.16.61c.57 2.95-1.26 6.1-3.77 7.84z" fill="#3f3d56"/><path d="M666.49 771.02c-2.71 1.85-6.07 2.42-9.33 2.84s-6.61.74-9.57 2.19c-2.54 1.26-4.69 3.32-7.39 4.22a15.31 15.31 0 01-7.67.12c-3-.57-6.26-1.67-7.89-4.29-1.46-2.32-1.31-5.27-1.11-8 .24-3.09.47-6.2.69-9.3a4.4 4.4 0 01.58-2.24c2.19-3.2 7.52 1.33 10.37 1.33 4.52 0 9.37-2.46 12.62-5.45a3.89 3.89 0 011-.74c1.29-.58 2.58.49 3.72 1.42l.39.31c2.64 2.09 6.18 2.52 9.44 3.37s6.75 2.55 7.76 5.77a4.57 4.57 0 01.16.61c.57 2.95-1.26 6.1-3.77 7.84z" fill="#434175"/><path d="M666.49 772.06c-2.71 1.85-6.07 2.43-9.33 2.85s-6.61.73-9.57 2.18c-2.54 1.26-4.69 3.32-7.39 4.22a15.31 15.31 0 01-7.67.12 12.6 12.6 0 01-7.89-5.33c-1.46-2.32-1.31-5.27-1.11-8 .24-3.09.47-6.2.69-9.3a4.4 4.4 0 01.58-2.24c2.19-3.2 7.52 1.33 10.37 1.33 4.52 0 9.37-2.46 12.62-5.45a3.89 3.89 0 011-.74c1.29-.58 2.58.49 3.72 1.42a26.4 26.4 0 01-3.17 6.56 13.63 13.63 0 01-10 6.22c-2 .15-4.09-.25-6 .27s-3.77 2.52-3.08 4.42 3.06 2.25 5 2.36a22.38 22.38 0 008.21-.58c1.6-.53 3.07-1.41 4.62-2.06 6.62-2.74 15-1.21 20.46-5.85a13 13 0 011.67-1.28c1.45 2.99-1.22 7.19-3.73 8.88z" fill="#e8eaf2"/><path d="M666.49 772.06c-2.71 1.85-6.07 2.43-9.33 2.85s-6.61.73-9.57 2.18c-2.54 1.26-4.69 3.32-7.39 4.22a15.31 15.31 0 01-7.67.12 12.6 12.6 0 01-7.89-5.33c-1.46-2.32-1.31-5.27-1.11-8 .24-3.09.47-6.2.69-9.3a4.4 4.4 0 01.58-2.24c2.19-3.2 7.52 1.33 10.37 1.33 4.52 0 9.37-2.46 12.62-5.45a3.89 3.89 0 011-.74c1.29-.58 2.58.49 3.72 1.42a26.4 26.4 0 01-3.17 6.56 13.63 13.63 0 01-10 6.22c-2 .15-4.09-.25-6 .27s-3.77 2.52-3.08 4.42 3.06 2.25 5 2.36a22.38 22.38 0 008.21-.58c1.6-.53 3.07-1.41 4.62-2.06 6.62-2.74 15-1.21 20.46-5.85a13 13 0 011.67-1.28c1.45 2.99-1.22 7.19-3.73 8.88z" opacity=".05"/><path d="M594.64 569.44a40.77 40.77 0 005.58 30c1.55 2.4 3.37 4.66 4.54 7.27a33.77 33.77 0 011.77 5.77l5 20.8c1.36 5.62 2.73 11.34 2.32 17.11-.28 4-1.3 8.53 1.18 11.71a8.46 8.46 0 011.49 2.05 5.15 5.15 0 010 2.7c-2.54 15.11-4.43 30.9.16 45.51 4.17 13.25 4.41 27.93 7.95 41.35a9.24 9.24 0 002.19 4.59 7.27 7.27 0 003.3 1.56c5.22 1.25 10.73-.21 15.59-2.46 3.42-1.59 7.1-4.37 6.81-8.12-.14-1.79-1.18-3.36-1.89-5-1.39-3.23-1.5-6.83-1.88-10.33-.94-8.78-3.65-17.26-5.69-25.84s-3.44-17.57-1.71-26.23a229.79 229.79 0 0116.87-51.9 6.27 6.27 0 011.55-2.32 16.86 16.86 0 002.19-1.49 6.66 6.66 0 001-2.72c.76-2.74 3-4.77 4.53-7.17 3.83-6.08 2.62-13.87 2.48-21.05-.14-7 .86-14-.28-20.92s-5.04-13.94-11.69-16.06c-3.29-1.07-6.85-.82-10.29-.48-18.23 1.8-35.95 5.11-53.07 11.67z" fill="#696791"/><path d="M594.64 570.44a40.77 40.77 0 005.58 30c1.55 2.4 3.37 4.66 4.54 7.27a33.77 33.77 0 011.77 5.77l5 20.8c1.36 5.62 2.73 11.34 2.32 17.11-.28 4-1.3 8.53 1.18 11.71a8.46 8.46 0 011.49 2.05 5.15 5.15 0 010 2.7c-2.54 15.11-4.43 30.9.16 45.51 4.17 13.25 4.41 27.93 7.95 41.35a9.24 9.24 0 002.19 4.59 7.27 7.27 0 003.3 1.56c5.22 1.25 10.73-.21 15.59-2.46 3.42-1.59 7.1-4.37 6.81-8.12-.14-1.79-1.18-3.36-1.89-5-1.39-3.23-1.5-6.83-1.88-10.33-.94-8.78-3.65-17.26-5.69-25.84s-3.44-17.57-1.71-26.23a229.79 229.79 0 0116.87-51.9 6.27 6.27 0 011.55-2.32 16.86 16.86 0 002.19-1.49 6.66 6.66 0 001-2.72c.76-2.74 3-4.77 4.53-7.17 3.83-6.08 2.62-13.87 2.48-21.05-.14-7 .86-14-.28-20.92s-5.04-13.94-11.69-16.06c-3.29-1.07-6.85-.82-10.29-.48-18.23 1.8-35.95 5.11-53.07 11.67z" opacity=".1"/><path d="M668.92 613.23a44 44 0 01-.91 8.07q-4.83 27-10.28 54c-.32 1.56-.63 3.12-1.05 4.65a37.78 37.78 0 01-7 13.7c-15.15 18.89-16.46 46.32-24.68 69.1-.56 1.54-1.11 3.09-1.7 4.61a115.75 115.75 0 01-5.07 11.31 3.22 3.22 0 01-1 1.35 3.08 3.08 0 01-1.65.33 48.31 48.31 0 01-21.36-4.86 4.48 4.48 0 01-2.27-1.89 4.66 4.66 0 01-.24-2.17c.23-4.51.51-9.19 2.66-13.16a28.22 28.22 0 015.26-6.38 242.36 242.36 0 015.16-42.22c1.6-7.08 3.58-14.23 7.69-20.21 3-4.42 7.38-8.78 6.84-14.11-.23-2.34-1.21-5.25.69-6.62.83-.61 2.06-.69 2.63-1.55a3 3 0 00.37-1.32 32.66 32.66 0 00-.68-10.93 58.79 58.79 0 01-1.63-7.13 9 9 0 011.79-6.88c.1-4.87 0-9.92.07-14.78a27.16 27.16 0 00-.69-8.25c-.36-1.27-.93-2.49-1.21-3.79-1-4.67 1.52-10.27-1.5-14-1.26-1.54-3.2-2.31-4.85-3.42a17.71 17.71 0 01-6.66-9.57 52.59 52.59 0 01-1.9-11.74 11.28 11.28 0 010-2.53 4.35 4.35 0 01.34-1.27c.94-2.11 3.46-2.93 5.71-3.47a185.15 185.15 0 0143.61-5.1c5.44-3.7 8.49-2.37 10.8 1.54a41.09 41.09 0 013.07 7.51c1 3.18 1.12 21 2.14 24.17 1.3 4.15-2.55 12.65-2.5 17.01z" fill="#696791"/><path d="M570.68 451.29c-.4 2.8.94 5.55 1.09 8.38.13 2.47-.66 4.88-1.1 7.31-1.76 9.48 1.61 19.09 5 28.11a14.4 14.4 0 011.2 4.62c.09 2.94-1.6 5.64-2.07 8.55-1 6.11 3.53 11.85 3.63 18 0 2.85-.86 5.75-.14 8.5.47 1.84 1.62 3.43 2.43 5.14 1.45 3 1.84 6.5 3.22 9.57 2.49 5.55 7.84 9.18 12.94 12.51 2.89-1 6-2.11 7.62-4.72a11.63 11.63 0 001.33-4.14c1.1-6.33 1.06-12.79 1-19.21a118.59 118.59 0 00-.83-16.54c-1-7-3.29-13.7-4.92-20.57-2-8.65-3.09-17.59-6.28-25.9-2.81-7.29-7.17-13.84-11.77-20.12-1.75-2.39-3.14-5.81-6.54-5.26a7.13 7.13 0 00-5.81 5.77z" fill="#434175"/><path d="M570.68 449.29c-.4 2.8.94 5.55 1.09 8.38.13 2.47-.66 4.88-1.1 7.31-1.76 9.48 1.61 19.09 5 28.11a14.4 14.4 0 011.2 4.62c.09 2.94-1.6 5.64-2.07 8.55-1 6.11 3.53 11.85 3.63 18 0 2.85-.86 5.75-.14 8.5.47 1.84 1.62 3.43 2.43 5.14 1.45 3 1.84 6.5 3.22 9.57 2.49 5.55 7.84 9.18 12.94 12.51 2.89-1 6-2.11 7.62-4.72a11.63 11.63 0 001.33-4.14c1.1-6.33 1.06-12.79 1-19.21a118.59 118.59 0 00-.83-16.54c-1-7-3.29-13.7-4.92-20.57-2-8.65-3.09-17.59-6.28-25.9-2.81-7.29-7.17-13.84-11.77-20.12-1.75-2.39-3.14-5.81-6.54-5.26a7.13 7.13 0 00-5.81 5.77z" opacity=".05"/><path d="M644.66 390.28a59.69 59.69 0 00-5.55 11.43 26.19 26.19 0 01-6.3.76c-8.25 0-14.08-4.69-18.93-10.62-.42-1.9-3-3.67-2.74-5.16.39-2 2.25-1.59 3.93-1.48a150.51 150.51 0 0115.26 2c1.32.16 14.13 3.4 14.33 3.07z" opacity=".1"/><circle cx="632.81" cy="375.34" r="26.41" fill="#ee8e9e"/><path d="M666.18 564.56c-4.57-.27-9.18-.08-13.76.1a47.15 47.15 0 00-8.55.88c-3.47.79-6.71 2.37-10.13 3.36-5.48 1.59-11.26 1.66-16.93 2.22a94.36 94.36 0 00-11.09 1.74 4.35 4.35 0 01.34-1.27c.94-2.11 3.46-2.93 5.71-3.47a185.15 185.15 0 0143.61-5.1c5.44-3.65 8.49-2.37 10.8 1.54z" opacity=".1"/><path d="M648.18 418.58c-1.15 1.33-2.7 2.8-4.4 2.37a6.08 6.08 0 01-1.72-.92c-3-2-6.78-2.42-10.36-3a152.4 152.4 0 01-21.34-4.8 21.93 21.93 0 00-6.32-1.28c-4.47 0-8.44 3-11.24 6.48s-4.8 7.57-7.55 11.1c-2 2.52-4.3 4.74-6.13 7.35-4.62 6.59-5.62 15.19-4.42 23.15s4.37 15.47 7.53 22.88a78.47 78.47 0 006.14 12.46c-1.06 6-.5 13 2.38 18.4.93 1.77 2.08 3.49 2.39 5.47a13.85 13.85 0 01-.16 4l-1.35 9.56c-.41 2.91-.82 5.82-1.35 8.72-1 5.29-2.28 11 .17 15.82 2.93 5.74-.15 13.09.62 19.49a97.8 97.8 0 0125.74-6.11c5.67-.56 11.45-.63 16.93-2.22 3.42-1 6.66-2.57 10.13-3.37a47 47 0 018.55-.87c6.33-.25 12.7-.51 19 .42.5.08 1.12.12 1.43-.29a1.47 1.47 0 00.19-.75 12.63 12.63 0 00-1.62-6.72c-.8-1.41-1.91-2.79-1.88-4.41a6.48 6.48 0 01.55-2.19l2.77-7.4c2.35-6.25 1.23-13.51 2.45-20.07a117.46 117.46 0 001.82-15.53c.23-4.45.09-9.27-2.6-12.83a14.67 14.67 0 01-2-2.83 8.34 8.34 0 01-.48-3.37q-.09-13.36.73-26.72c-2.34-4.21-4.79-8.51-7.13-12.72-2.73-4.9-5.49-9.9-6.59-15.4-.73-3.63-.71-7.38-1.23-11.05a4.9 4.9 0 00-.93-2.59 4.69 4.69 0 00-3.76-1.11 16.44 16.44 0 00-4.96.88z" fill="#434175"/><path d="M744.87 402.71a11.5 11.5 0 01-5.72 2.33c-2.72.18-8.51-1.42-10.2-3.75a6.77 6.77 0 01-1-3.91 4.91 4.91 0 011.14-.22 29.88 29.88 0 018.86.36c2.88.7 5.66 2.45 6.87 5.16z" opacity=".1"/><path d="M657 459.83c1.61 2 3.28 4.06 5.56 5.25 2.63 1.36 5.72 1.39 8.67 1.33a208 208 0 0036.23-4 22.81 22.81 0 004-1.07 20.6 20.6 0 004-2.52c3.93-2.82 7.92-5.7 10.91-9.51a32.05 32.05 0 006.46-15.85c2.84-2.61 4.35-6.34 5.77-9.93a15.24 15.24 0 001.32-4.82c.07-1.71-1.06-3.5-.74-5.18a13.64 13.64 0 014.19-7.54 2.74 2.74 0 001-1.33 2.1 2.1 0 00-.23-1.29c-1.22-2.71-4-4.45-6.88-5.16a29.61 29.61 0 00-8.87-.36 20.06 20.06 0 00-2.9.78l-2.07 5.43a6.88 6.88 0 01-1.35 2.48 12.52 12.52 0 01-1.46 1.15 8.38 8.38 0 00-2.91 7.33 7.88 7.88 0 00-4.66 9.72 9.3 9.3 0 00-6.81 6 4.45 4.45 0 01-.89 1.87 3.66 3.66 0 01-2.34.76c-2.34.14-4.38 2-6.49 1a13.29 13.29 0 00-7.71-1.08 5.77 5.77 0 01-1.65.15 4.43 4.43 0 01-1.35-.47 10.72 10.72 0 00-3.06-1.2 2.84 2.84 0 00-2.9 1.12c-.74-.81-1.18-1.85-1.85-2.72a3 3 0 00-2.82-1.35c.7-.62 0-1.87-.93-2.1a12.66 12.66 0 00-2.81.1c-2.44 0-4.32-2.23-6.69-2.81-2.18-.53-5.09.11-6.21-1.84-.39-.69-.47-1.63-1.14-2a2.2 2.2 0 00-1.48-.17 14.24 14.24 0 00-4.45 1.35c-2.29 9-1.09 18.24.65 27.3a24.07 24.07 0 004.89 11.18z" fill="#434175"/><path d="M656.93 491.88l-11.37 22.94c1.23-2.13 3.82-3 5.87-4.31a15.54 15.54 0 005.57-7.54 47.14 47.14 0 002.15-9.29c.23-1.45.71-3.49 0-4.81-1.26.27-1.68 1.94-2.22 3.01zm-32.72 19.49c-2.57 2.54-5.71 4.41-8.53 6.66-6.6 5.26-11.3 12.46-15.89 19.53a30.77 30.77 0 00-3.25 5.92c.54.46 1.34 0 1.88-.49l8.93-7.84a20.19 20.19 0 003-3c1.55-2.09 2.24-4.69 3.65-6.88a26.84 26.84 0 015.43-5.53c2.05-1.76 11.47-9.73 9.18-12.83-1.69.8-3.05 3.1-4.4 4.46z" opacity=".1"/><path d="M643.72 411.95a26.78 26.78 0 00-9.45-3.11 20 20 0 00-6-.43c-1.86.23-3.65.95-5.52 1-2.63.15-5.14-.92-7.68-1.61s-5.47-1-7.6.57a3.29 3.29 0 01-1.66.88 3 3 0 01-1.71-.84 9.74 9.74 0 00-12.14.64c-4.84 4.54-4.29 13.41-10 16.86-1.56 1-3.56 1.45-4.48 3a12 12 0 01-.77 1.46 4 4 0 01-1.36 1 26.43 26.43 0 00-4.68 2.69 6.66 6.66 0 00-2.69 4.51 8.53 8.53 0 00.82 3.79 35.62 35.62 0 0034.61 22.13 5.42 5.42 0 003.63-1.13 6.93 6.93 0 001.27-2.09c2.67-5.59 7.68-9.72 10.86-15 1.89-3.17 3.11-6.72 5.09-9.84 3-4.73 7.54-8.23 12-11.62 2.52-1.91 5.31-3.92 8.47-3.79 2.81.12 4.86.27 3.82-3.17a11 11 0 00-4.83-5.9z" fill="#434175"/><path d="M643.72 411.95a26.78 26.78 0 00-9.45-3.11 20 20 0 00-6-.43c-1.86.23-3.65.95-5.52 1-2.63.15-5.14-.92-7.68-1.61s-5.47-1-7.6.57a3.29 3.29 0 01-1.66.88 3 3 0 01-1.71-.84 9.74 9.74 0 00-12.14.64c-4.84 4.54-4.29 13.41-10 16.86-1.56 1-3.56 1.45-4.48 3a12 12 0 01-.77 1.46 4 4 0 01-1.36 1 26.43 26.43 0 00-4.68 2.69 6.66 6.66 0 00-2.69 4.51 8.53 8.53 0 00.82 3.79 35.62 35.62 0 0034.61 22.13 5.42 5.42 0 003.63-1.13 6.93 6.93 0 001.27-2.09c2.67-5.59 7.68-9.72 10.86-15 1.89-3.17 3.11-6.72 5.09-9.84 3-4.73 7.54-8.23 12-11.62 2.52-1.91 5.31-3.92 8.47-3.79 2.81.12 4.86.27 3.82-3.17a11 11 0 00-4.83-5.9z" opacity=".05"/><path d="M657.47 794.73c-1.92 1.79-4.55 2.57-7.1 3.12a127.7 127.7 0 01-17.67 2.19l-5.77.44c-5.63.43-11.27.86-16.92.88a117.17 117.17 0 01-20.82-1.8 2.28 2.28 0 01-1.65-.8 2.24 2.24 0 01-.25-1.31 100.74 100.74 0 012.56-20.9c.65-2.81 5.7 3.5 5.93 3.77a5.76 5.76 0 004.59 2.43c5.81.32 12.32-3.21 16.93-6.35a22.18 22.18 0 013.14-1.95 9.19 9.19 0 012.54-.72 15.28 15.28 0 018.64 1.75c3.47 1.72 6.51 4.19 10 6a28.06 28.06 0 008.92 2.82c3.14.43 6.9.64 8.51 3.36 1.28 2.25.32 5.29-1.58 7.07z" fill="#434175"/><path d="M657.47 795.77c-1.92 1.79-4.55 2.57-7.1 3.12a127.7 127.7 0 01-17.67 2.19l-5.77.44c-5.63.43-11.27.86-16.92.88a116.24 116.24 0 01-20.82-1.8 2.27 2.27 0 01-1.65-.79 9.26 9.26 0 01-1.29-2.36c.12-7 2-14.05 3.6-20.9.65-2.81 5.7 3.5 5.93 3.77a5.76 5.76 0 004.59 2.43c5.81.32 12.32-3.21 16.93-6.35a22.18 22.18 0 013.14-1.95 9.19 9.19 0 012.54-.72c-.75 4.18-6.74 9.23-9.84 10.77-6.26 3.11-13.7 1.55-20.68 1.92a3 3 0 00-1.47.35c-.83.56-.88 1.75-.86 2.75.06 1.66.27 3.62 1.72 4.46a4.94 4.94 0 002.32.49 327.89 327.89 0 0051.57-1.81 28.23 28.23 0 008.4-1.87 21.44 21.44 0 004.87-3.14c2.2 1.72.36 6.34-1.54 8.12z" fill="#e8eaf2"/><path d="M643.09 375.06c-.1 2.73 1.76 8-3.35 6.55-3-.88-3.9-4.49-7.76-3.69s-4.76 5.57-6.06 8.68a16.59 16.59 0 01-12 9.72 7.26 7.26 0 01-3.31 0c-2.49-.71-3.91-3.28-4.93-5.66a44.08 44.08 0 01-2.18-6.22 25.31 25.31 0 01-.79-4.56 19.48 19.48 0 010-3.15c.46-6.21 4-11.87 8.52-16.15s10-7.38 15.45-10.43a22.9 22.9 0 015.7-2.54 19.21 19.21 0 016-.24 20.85 20.85 0 017.66 1.8 10.71 10.71 0 012.69 1.89 8.11 8.11 0 012.34 3.89c1 4-1.58 7.63-3.66 10.8-1.9 2.81-4.19 5.79-4.32 9.31z" fill="#434175"/><path d="M729 433.67c-1.09-2.75-5.67-10.36-4.35-13a33.77 33.77 0 013.49 6.24c.86 2.15.18 5.01.86 6.76zm-81.53-67.93c2.08-3.17 4.64-6.79 3.66-10.8a8.35 8.35 0 00-3-4.44 7.27 7.27 0 01.76 1.87c1 4-1.58 7.62-3.66 10.8-1.85 2.82-4.14 5.81-4.28 9.32-.1 2.73 1.77 8-3.34 6.55-3-.88-3.9-4.49-7.77-3.69s-4.75 5.56-6.06 8.68a16.57 16.57 0 01-12 9.72 7.26 7.26 0 01-3.31 0 5.05 5.05 0 01-1.56-.77 6.76 6.76 0 003.77 3.34 7.44 7.44 0 003.32 0 16.63 16.63 0 0012-9.73c1.31-3.12 2.16-7.86 6.06-8.67s4.72 2.8 7.77 3.68c5.11 1.48 3.24-3.82 3.34-6.55.16-3.5 2.46-6.49 4.3-9.31z" opacity=".1"/><path d="M648.6 360.31a21.84 21.84 0 01-1.56 2.24 26.58 26.58 0 01-3.61 3.74c-.79.68-1.6 1.31-2.44 1.91a38.47 38.47 0 01-4.93 2.95 91.47 91.47 0 01-15.78 5.65l-10.54 3.07c-1.3 1-3.67 2.74-6.28 4.57a25.31 25.31 0 01-.79-4.56 19.48 19.48 0 010-3.15c.46-6.21 4-11.87 8.52-16.15s10-7.38 15.45-10.43a22.9 22.9 0 015.7-2.54 19.21 19.21 0 016-.24 20.85 20.85 0 017.66 1.8 10.71 10.71 0 012.69 1.89 10.14 10.14 0 011.35 2.86c.66 2.15-.26 4.45-1.44 6.39z" opacity=".1"/><path d="M648.6 359.6a21.84 21.84 0 01-1.56 2.24 26.58 26.58 0 01-3.61 3.74c-.79.68-1.6 1.31-2.44 1.91a39.65 39.65 0 01-4.93 2.95 91.47 91.47 0 01-15.78 5.65l-10.54 3.06c-3.68 2.79-16 11.91-18.07 10.77-2.44-1.34 10.93-10.81 10.93-10.81l.61.47c-2-1.23-3-4.08-3.42-6.55-.78-4.42-1.15-9-.1-13.37s3.67-8.51 7.66-10.55c1.77-.92 3.92-1.53 5.2-2.93a4.4 4.4 0 00.51-.69 2.08 2.08 0 00.2-.36 4.32 4.32 0 01.56-1.09c.73-.84 2.06-.59 3.17-.45h.36a5.68 5.68 0 00.59 0c4 .09 7.81-2.12 11.82-2.12 4.39 0 8.13 2.54 12 4.28.78.35 1.52.67 2.22 1 2.8 1.3 4.9 2.69 6 6.38.72 2.24-.2 4.55-1.38 6.47z" fill="#79837e"/><path d="M617.94 343.65a1.8 1.8 0 01-.42 2.32 3.2 3.2 0 01-1.66.59 11.2 11.2 0 01-1.3.1 3.58 3.58 0 01-1.71-.29 2.2 2.2 0 01-.3-.19 4.4 4.4 0 00.51-.69c.1.08.2.06.59 0a9.13 9.13 0 002.14-.36 2.38 2.38 0 00.8-.39 2.48 2.48 0 00.76-1.15zm-15.08 35.36a4.87 4.87 0 001.83.68 8.29 8.29 0 001.41.23 7.84 7.84 0 003.45-1" opacity=".1"/></svg>